<?xml version="1.0" encoding="UTF-8" standalone="no"?>
<!DOCTYPE svg PUBLIC "-//W3C//DTD SVG 1.1//EN"
 "http://www.w3.org/Graphics/SVG/1.1/DTD/svg11.dtd">
<!-- Generated by graphviz version 12.0.0 (0)
 -->
<!-- Title: G Pages: 1 -->
<svg width="381pt" height="225pt"
 viewBox="0.00 0.00 380.50 224.51" xmlns="http://www.w3.org/2000/svg" xmlns:xlink="http://www.w3.org/1999/xlink">
<g id="graph0" class="graph" transform="scale(1 1) rotate(0) translate(4 220.51)">
<title>G</title>
<polygon fill="white" stroke="none" points="-4,4 -4,-220.51 376.5,-220.51 376.5,4 -4,4"/>
<!-- performance -->
<g id="node1" class="node">
<title>performance</title>
<ellipse fill="#cae6df" stroke="black" cx="192.5" cy="-158.5" rx="58" ry="58"/>
<text text-anchor="middle" x="192.5" y="-153.45" font-family="Times,serif" font-size="14.00">performance</text>
</g>
<!-- clonediam -->
<g id="node2" class="node">
<title>clonediam</title>
<polygon fill="none" stroke="black" points="73,-36 0,-36 0,0 73,0 73,-36"/>
<text text-anchor="middle" x="36.5" y="-12.95" font-family="Times,serif" font-size="14.00">clonediam</text>
</g>
<!-- performance&#45;&gt;clonediam -->
<g id="edge3" class="edge">
<title>performance&#45;&gt;clonediam</title>
<path fill="none" stroke="black" d="M140.08,-133.25C116.72,-120.56 90.11,-103.31 70.5,-82.5 60.85,-72.26 53.11,-58.75 47.47,-46.82"/>
<polygon fill="black" stroke="black" points="50.75,-45.57 43.5,-37.84 44.34,-48.4 50.75,-45.57"/>
<text text-anchor="middle" x="96" y="-71.1" font-family="Times,serif" font-size="12.00">1.023</text>
<text text-anchor="middle" x="96" y="-56.85" font-family="Times,serif" font-size="12.00">p&#45;val: 0.00</text>
</g>
<!-- infls -->
<g id="node3" class="node">
<title>infls</title>
<polygon fill="none" stroke="black" points="145.5,-36 91.5,-36 91.5,0 145.5,0 145.5,-36"/>
<text text-anchor="middle" x="118.5" y="-12.95" font-family="Times,serif" font-size="14.00">infls</text>
</g>
<!-- performance&#45;&gt;infls -->
<g id="edge2" class="edge">
<title>performance&#45;&gt;infls</title>
<path fill="none" stroke="black" d="M155.62,-113.62C148.56,-103.81 141.75,-93.14 136.5,-82.5 131.08,-71.52 127.04,-58.64 124.19,-47.36"/>
<polygon fill="black" stroke="black" points="127.64,-46.76 121.97,-37.81 120.82,-48.34 127.64,-46.76"/>
<text text-anchor="middle" x="162" y="-71.1" font-family="Times,serif" font-size="12.00">0.891</text>
<text text-anchor="middle" x="162" y="-56.85" font-family="Times,serif" font-size="12.00">p&#45;val: 0.00</text>
</g>
<!-- leafht -->
<g id="node4" class="node">
<title>leafht</title>
<polygon fill="none" stroke="black" points="218.5,-36 164.5,-36 164.5,0 218.5,0 218.5,-36"/>
<text text-anchor="middle" x="191.5" y="-12.95" font-family="Times,serif" font-size="14.00">leafht</text>
</g>
<!-- performance&#45;&gt;leafht -->
<g id="edge4" class="edge">
<title>performance&#45;&gt;leafht</title>
<path fill="none" stroke="black" d="M192.09,-100.37C191.96,-82.14 191.82,-62.76 191.71,-47.48"/>
<polygon fill="black" stroke="black" points="195.21,-47.7 191.64,-37.73 188.21,-47.75 195.21,-47.7"/>
<text text-anchor="middle" x="217" y="-71.1" font-family="Times,serif" font-size="12.00">0.849</text>
<text text-anchor="middle" x="217" y="-56.85" font-family="Times,serif" font-size="12.00">p&#45;val: 0.00</text>
</g>
<!-- leafwdth -->
<g id="node5" class="node">
<title>leafwdth</title>
<polygon fill="none" stroke="black" points="300.12,-36 236.88,-36 236.88,0 300.12,0 300.12,-36"/>
<text text-anchor="middle" x="268.5" y="-12.95" font-family="Times,serif" font-size="14.00">leafwdth</text>
</g>
<!-- performance&#45;&gt;leafwdth -->
<g id="edge5" class="edge">
<title>performance&#45;&gt;leafwdth</title>
<path fill="none" stroke="black" d="M228.12,-112.45C234.76,-102.88 241.25,-92.61 246.5,-82.5 252.24,-71.43 257.03,-58.54 260.65,-47.27"/>
<polygon fill="black" stroke="black" points="264,-48.3 263.56,-37.71 257.3,-46.26 264,-48.3"/>
<text text-anchor="middle" x="283" y="-71.1" font-family="Times,serif" font-size="12.00">0.790</text>
<text text-anchor="middle" x="283" y="-56.85" font-family="Times,serif" font-size="12.00">p&#45;val: 0.00</text>
</g>
<!-- stems -->
<g id="node6" class="node">
<title>stems</title>
<polygon fill="none" stroke="black" points="372.5,-36 318.5,-36 318.5,0 372.5,0 372.5,-36"/>
<text text-anchor="middle" x="345.5" y="-12.95" font-family="Times,serif" font-size="14.00">stems</text>
</g>
<!-- performance&#45;&gt;stems -->
<g id="edge1" class="edge">
<title>performance&#45;&gt;stems</title>
<path fill="none" stroke="black" d="M244.76,-132.87C267.62,-120.2 293.5,-103.07 312.5,-82.5 321.99,-72.23 329.51,-58.71 334.96,-46.8"/>
<polygon fill="black" stroke="black" points="338.08,-48.4 338.79,-37.83 331.65,-45.65 338.08,-48.4"/>
<text text-anchor="middle" x="344" y="-63.98" font-family="Times,serif" font-size="12.00">1.000</text>
</g>
</g>
</svg>
