<?xml version="1.0" encoding="UTF-8" standalone="no"?>
<!DOCTYPE svg PUBLIC "-//W3C//DTD SVG 1.1//EN"
 "http://www.w3.org/Graphics/SVG/1.1/DTD/svg11.dtd">
<!-- Generated by graphviz version 12.0.0 (0)
 -->
<!-- Title: G Pages: 1 -->
<svg width="398pt" height="426pt"
 viewBox="0.00 0.00 397.50 425.51" xmlns="http://www.w3.org/2000/svg" xmlns:xlink="http://www.w3.org/1999/xlink">
<g id="graph0" class="graph" transform="scale(1 1) rotate(0) translate(4 421.51)">
<title>G</title>
<polygon fill="white" stroke="none" points="-4,4 -4,-421.51 393.5,-421.51 393.5,4 -4,4"/>
<!-- performance -->
<g id="node1" class="node">
<title>performance</title>
<ellipse fill="#cae6df" stroke="black" cx="184.5" cy="-259" rx="58" ry="58"/>
<text text-anchor="middle" x="184.5" y="-253.95" font-family="Times,serif" font-size="14.00">performance</text>
</g>
<!-- clonediam -->
<g id="node2" class="node">
<title>clonediam</title>
<polygon fill="none" stroke="black" points="73,-136.5 0,-136.5 0,-100.5 73,-100.5 73,-136.5"/>
<text text-anchor="middle" x="36.5" y="-113.45" font-family="Times,serif" font-size="14.00">clonediam</text>
</g>
<!-- performance&#45;&gt;clonediam -->
<g id="edge4" class="edge">
<title>performance&#45;&gt;clonediam</title>
<path fill="none" stroke="black" d="M131.18,-235.69C106.85,-223.24 79.33,-205.63 60.5,-183 52.1,-172.91 46.47,-159.58 42.78,-147.73"/>
<polygon fill="black" stroke="black" points="46.26,-147.16 40.22,-138.45 39.51,-149.02 46.26,-147.16"/>
<text text-anchor="middle" x="86" y="-171.6" font-family="Times,serif" font-size="12.00">1.007</text>
<text text-anchor="middle" x="86" y="-157.35" font-family="Times,serif" font-size="12.00">p&#45;val: 0.00</text>
</g>
<!-- infls -->
<g id="node3" class="node">
<title>infls</title>
<polygon fill="none" stroke="black" points="145.5,-136.5 91.5,-136.5 91.5,-100.5 145.5,-100.5 145.5,-136.5"/>
<text text-anchor="middle" x="118.5" y="-113.45" font-family="Times,serif" font-size="14.00">infls</text>
</g>
<!-- performance&#45;&gt;infls -->
<g id="edge3" class="edge">
<title>performance&#45;&gt;infls</title>
<path fill="none" stroke="black" d="M141.89,-219.05C132.82,-208.33 124.48,-196.04 119.5,-183 115.34,-172.11 114.45,-159.38 114.83,-148.19"/>
<polygon fill="black" stroke="black" points="118.31,-148.55 115.54,-138.32 111.33,-148.04 118.31,-148.55"/>
<text text-anchor="middle" x="145" y="-171.6" font-family="Times,serif" font-size="12.00">0.887</text>
<text text-anchor="middle" x="145" y="-157.35" font-family="Times,serif" font-size="12.00">p&#45;val: 0.00</text>
</g>
<!-- leafht -->
<g id="node4" class="node">
<title>leafht</title>
<polygon fill="none" stroke="black" points="227.5,-36 173.5,-36 173.5,0 227.5,0 227.5,-36"/>
<text text-anchor="middle" x="200.5" y="-12.95" font-family="Times,serif" font-size="14.00">leafht</text>
</g>
<!-- performance&#45;&gt;leafht -->
<g id="edge5" class="edge">
<title>performance&#45;&gt;leafht</title>
<path fill="none" stroke="black" d="M187.38,-200.75C188.98,-170.86 191.13,-133.69 193.5,-100.5 194.76,-82.89 196.45,-63.17 197.85,-47.53"/>
<polygon fill="black" stroke="black" points="201.3,-48.26 198.72,-37.98 194.33,-47.63 201.3,-48.26"/>
<text text-anchor="middle" x="219" y="-121.35" font-family="Times,serif" font-size="12.00">0.816</text>
<text text-anchor="middle" x="219" y="-107.1" font-family="Times,serif" font-size="12.00">p&#45;val: 0.00</text>
</g>
<!-- leafwdth -->
<g id="node5" class="node">
<title>leafwdth</title>
<polygon fill="none" stroke="black" points="317.12,-136.5 253.88,-136.5 253.88,-100.5 317.12,-100.5 317.12,-136.5"/>
<text text-anchor="middle" x="285.5" y="-113.45" font-family="Times,serif" font-size="14.00">leafwdth</text>
</g>
<!-- performance&#45;&gt;leafwdth -->
<g id="edge6" class="edge">
<title>performance&#45;&gt;leafwdth</title>
<path fill="none" stroke="black" d="M218.41,-211.5C234.25,-189.78 252.53,-164.71 266.01,-146.23"/>
<polygon fill="black" stroke="black" points="268.81,-148.32 271.88,-138.18 263.16,-144.2 268.81,-148.32"/>
<text text-anchor="middle" x="283" y="-171.6" font-family="Times,serif" font-size="12.00">0.746</text>
<text text-anchor="middle" x="283" y="-157.35" font-family="Times,serif" font-size="12.00">p&#45;val: 0.00</text>
</g>
<!-- stems -->
<g id="node6" class="node">
<title>stems</title>
<polygon fill="none" stroke="black" points="389.5,-136.5 335.5,-136.5 335.5,-100.5 389.5,-100.5 389.5,-136.5"/>
<text text-anchor="middle" x="362.5" y="-113.45" font-family="Times,serif" font-size="14.00">stems</text>
</g>
<!-- performance&#45;&gt;stems -->
<g id="edge2" class="edge">
<title>performance&#45;&gt;stems</title>
<path fill="none" stroke="black" d="M236.64,-233.19C261.09,-220.17 289.78,-202.8 312.5,-183 324.77,-172.31 336.18,-158.27 345,-146.11"/>
<polygon fill="black" stroke="black" points="347.74,-148.3 350.61,-138.1 342.01,-144.28 347.74,-148.3"/>
<text text-anchor="middle" x="351" y="-164.47" font-family="Times,serif" font-size="12.00">1.000</text>
</g>
<!-- leafwdth&#45;&gt;leafht -->
<g id="edge7" class="edge">
<title>leafwdth&#45;&gt;leafht</title>
<path fill="none" stroke="black" stroke-dasharray="5,2" d="M263.27,-91.74C250.78,-77.27 235.24,-59.26 222.75,-44.79"/>
<polygon fill="black" stroke="black" points="260.52,-93.91 269.71,-99.2 265.82,-89.34 260.52,-93.91"/>
<polygon fill="black" stroke="black" points="225.59,-42.72 216.41,-37.44 220.29,-47.29 225.59,-42.72"/>
<text text-anchor="middle" x="278" y="-71.1" font-family="Times,serif" font-size="12.00">0.405</text>
<text text-anchor="middle" x="278" y="-56.85" font-family="Times,serif" font-size="12.00">p&#45;val: 0.00</text>
</g>
<!-- geneticdist -->
<g id="node7" class="node">
<title>geneticdist</title>
<polygon fill="none" stroke="black" points="221.75,-417.51 147.25,-417.51 147.25,-381.51 221.75,-381.51 221.75,-417.51"/>
<text text-anchor="middle" x="184.5" y="-394.46" font-family="Times,serif" font-size="14.00">geneticdist</text>
</g>
<!-- geneticdist&#45;&gt;performance -->
<g id="edge1" class="edge">
<title>geneticdist&#45;&gt;performance</title>
<path fill="none" stroke="black" d="M184.5,-381.25C184.5,-367.85 184.5,-348.34 184.5,-328.86"/>
<polygon fill="black" stroke="black" points="188,-328.96 184.5,-318.96 181,-328.96 188,-328.96"/>
<text text-anchor="middle" x="210" y="-352.11" font-family="Times,serif" font-size="12.00">&#45;3.194</text>
<text text-anchor="middle" x="210" y="-337.86" font-family="Times,serif" font-size="12.00">p&#45;val: 0.00</text>
</g>
</g>
</svg>
