<?xml version="1.0" encoding="UTF-8" standalone="no"?>
<!DOCTYPE svg PUBLIC "-//W3C//DTD SVG 1.1//EN"
 "http://www.w3.org/Graphics/SVG/1.1/DTD/svg11.dtd">
<!-- Generated by graphviz version 12.0.0 (0)
 -->
<!-- Pages: 1 -->
<svg width="179pt" height="260pt"
 viewBox="0.00 0.00 179.13 260.00" xmlns="http://www.w3.org/2000/svg" xmlns:xlink="http://www.w3.org/1999/xlink">
<g id="graph0" class="graph" transform="scale(1 1) rotate(0) translate(4 256)">
<polygon fill="white" stroke="none" points="-4,4 -4,-256 175.13,-256 175.13,4 -4,4"/>
<!-- fire_severity -->
<g id="node1" class="node">
<title>fire_severity</title>
<ellipse fill="none" stroke="black" cx="81.36" cy="-162" rx="57.49" ry="18"/>
<text text-anchor="middle" x="81.36" y="-156.95" font-family="Times,serif" font-size="14.00">fire_severity</text>
</g>
<!-- plant_abundance -->
<g id="node3" class="node">
<title>plant_abundance</title>
<ellipse fill="none" stroke="black" cx="73.36" cy="-90" rx="73.36" ry="18"/>
<text text-anchor="middle" x="73.36" y="-84.95" font-family="Times,serif" font-size="14.00">plant_abundance</text>
</g>
<!-- fire_severity&#45;&gt;plant_abundance -->
<g id="edge3" class="edge">
<title>fire_severity&#45;&gt;plant_abundance</title>
<path fill="none" stroke="black" d="M79.38,-143.7C78.55,-136.41 77.56,-127.73 76.62,-119.54"/>
<polygon fill="black" stroke="black" points="80.1,-119.15 75.49,-109.61 73.14,-119.94 80.1,-119.15"/>
</g>
<!-- stand_age -->
<g id="node2" class="node">
<title>stand_age</title>
<ellipse fill="none" stroke="black" cx="123.36" cy="-234" rx="47.77" ry="18"/>
<text text-anchor="middle" x="123.36" y="-228.95" font-family="Times,serif" font-size="14.00">stand_age</text>
</g>
<!-- stand_age&#45;&gt;fire_severity -->
<g id="edge1" class="edge">
<title>stand_age&#45;&gt;fire_severity</title>
<path fill="none" stroke="black" d="M113.19,-216.05C108.39,-208.06 102.56,-198.33 97.2,-189.4"/>
<polygon fill="black" stroke="black" points="100.36,-187.86 92.21,-181.09 94.36,-191.46 100.36,-187.86"/>
</g>
<!-- richness -->
<g id="node4" class="node">
<title>richness</title>
<ellipse fill="none" stroke="black" cx="123.36" cy="-18" rx="41.12" ry="18"/>
<text text-anchor="middle" x="123.36" y="-12.95" font-family="Times,serif" font-size="14.00">richness</text>
</g>
<!-- stand_age&#45;&gt;richness -->
<g id="edge2" class="edge">
<title>stand_age&#45;&gt;richness</title>
<path fill="none" stroke="black" d="M132.55,-216.32C137.75,-206.13 143.88,-192.66 147.36,-180 160.1,-133.59 168.27,-118.37 155.36,-72 152.69,-62.43 147.78,-52.86 142.59,-44.54"/>
<polygon fill="black" stroke="black" points="145.58,-42.71 137.1,-36.35 139.77,-46.61 145.58,-42.71"/>
</g>
<!-- plant_abundance&#45;&gt;richness -->
<g id="edge4" class="edge">
<title>plant_abundance&#45;&gt;richness</title>
<path fill="none" stroke="black" d="M85.46,-72.05C91.38,-63.77 98.63,-53.62 105.2,-44.42"/>
<polygon fill="black" stroke="black" points="107.87,-46.71 110.83,-36.54 102.17,-42.64 107.87,-46.71"/>
</g>
</g>
</svg>
