<?xml version="1.0" encoding="UTF-8" standalone="no"?>
<!DOCTYPE svg PUBLIC "-//W3C//DTD SVG 1.1//EN"
 "http://www.w3.org/Graphics/SVG/1.1/DTD/svg11.dtd">
<!-- Generated by graphviz version 12.0.0 (0)
 -->
<!-- Pages: 1 -->
<svg width="168pt" height="260pt"
 viewBox="0.00 0.00 167.67 260.00" xmlns="http://www.w3.org/2000/svg" xmlns:xlink="http://www.w3.org/1999/xlink">
<g id="graph0" class="graph" transform="scale(1 1) rotate(0) translate(4 256)">
<polygon fill="white" stroke="none" points="-4,4 -4,-256 163.67,-256 163.67,4 -4,4"/>
<!-- slippery -->
<g id="node1" class="node">
<title>slippery</title>
<ellipse fill="none" stroke="black" cx="71" cy="-18" rx="40.6" ry="18"/>
<text text-anchor="middle" x="71" y="-12.95" font-family="Times,serif" font-size="14.00">slippery</text>
</g>
<!-- wet -->
<g id="node2" class="node">
<title>wet</title>
<ellipse fill="none" stroke="black" cx="71" cy="-90" rx="27" ry="18"/>
<text text-anchor="middle" x="71" y="-84.95" font-family="Times,serif" font-size="14.00">wet</text>
</g>
<!-- wet&#45;&gt;slippery -->
<g id="edge5" class="edge">
<title>wet&#45;&gt;slippery</title>
<path fill="none" stroke="black" d="M71,-71.7C71,-64.41 71,-55.73 71,-47.54"/>
<polygon fill="black" stroke="black" points="74.5,-47.62 71,-37.62 67.5,-47.62 74.5,-47.62"/>
</g>
<!-- season -->
<g id="node3" class="node">
<title>season</title>
<ellipse fill="none" stroke="black" cx="71" cy="-234" rx="35.49" ry="18"/>
<text text-anchor="middle" x="71" y="-228.95" font-family="Times,serif" font-size="14.00">season</text>
</g>
<!-- rain -->
<g id="node4" class="node">
<title>rain</title>
<ellipse fill="none" stroke="black" cx="27" cy="-162" rx="27" ry="18"/>
<text text-anchor="middle" x="27" y="-156.95" font-family="Times,serif" font-size="14.00">rain</text>
</g>
<!-- season&#45;&gt;rain -->
<g id="edge1" class="edge">
<title>season&#45;&gt;rain</title>
<path fill="none" stroke="black" d="M60.57,-216.41C55.35,-208.1 48.9,-197.85 43.06,-188.56"/>
<polygon fill="black" stroke="black" points="46.14,-186.87 37.86,-180.27 40.21,-190.6 46.14,-186.87"/>
</g>
<!-- sprinkler -->
<g id="node5" class="node">
<title>sprinkler</title>
<ellipse fill="none" stroke="black" cx="116" cy="-162" rx="43.67" ry="18"/>
<text text-anchor="middle" x="116" y="-156.95" font-family="Times,serif" font-size="14.00">sprinkler</text>
</g>
<!-- season&#45;&gt;sprinkler -->
<g id="edge2" class="edge">
<title>season&#45;&gt;sprinkler</title>
<path fill="none" stroke="black" d="M81.66,-216.41C86.93,-208.22 93.41,-198.14 99.31,-188.95"/>
<polygon fill="black" stroke="black" points="102.13,-191.05 104.59,-180.74 96.24,-187.26 102.13,-191.05"/>
</g>
<!-- rain&#45;&gt;wet -->
<g id="edge3" class="edge">
<title>rain&#45;&gt;wet</title>
<path fill="none" stroke="black" d="M36.98,-145.12C42.33,-136.61 49.04,-125.94 55.08,-116.32"/>
<polygon fill="black" stroke="black" points="57.89,-118.43 60.25,-108.1 51.96,-114.71 57.89,-118.43"/>
</g>
<!-- sprinkler&#45;&gt;wet -->
<g id="edge4" class="edge">
<title>sprinkler&#45;&gt;wet</title>
<path fill="none" stroke="black" d="M105.34,-144.41C99.99,-136.1 93.4,-125.85 87.43,-116.56"/>
<polygon fill="black" stroke="black" points="90.45,-114.78 82.1,-108.26 84.56,-118.57 90.45,-114.78"/>
</g>
</g>
</svg>
