<?xml version="1.0" encoding="UTF-8" standalone="no"?>
<!DOCTYPE svg PUBLIC "-//W3C//DTD SVG 1.1//EN"
 "http://www.w3.org/Graphics/SVG/1.1/DTD/svg11.dtd">
<!-- Generated by graphviz version 12.0.0 (0)
 -->
<!-- Title: G Pages: 1 -->
<svg width="86pt" height="245pt"
 viewBox="0.00 0.00 86.00 245.00" xmlns="http://www.w3.org/2000/svg" xmlns:xlink="http://www.w3.org/1999/xlink">
<g id="graph0" class="graph" transform="scale(1 1) rotate(0) translate(4 241)">
<title>G</title>
<polygon fill="white" stroke="none" points="-4,4 -4,-241 82,-241 82,4 -4,4"/>
<!-- cover -->
<g id="node1" class="node">
<title>cover</title>
<polygon fill="none" stroke="black" points="54,-36 0,-36 0,0 54,0 54,-36"/>
<text text-anchor="middle" x="27" y="-12.95" font-family="Times,serif" font-size="14.00">cover</text>
</g>
<!-- age -->
<g id="node2" class="node">
<title>age</title>
<polygon fill="none" stroke="black" points="54,-237 0,-237 0,-201 54,-201 54,-237"/>
<text text-anchor="middle" x="27" y="-213.95" font-family="Times,serif" font-size="14.00">age</text>
</g>
<!-- firesev -->
<g id="node3" class="node">
<title>firesev</title>
<polygon fill="none" stroke="black" points="54,-136.5 0,-136.5 0,-100.5 54,-100.5 54,-136.5"/>
<text text-anchor="middle" x="27" y="-113.45" font-family="Times,serif" font-size="14.00">firesev</text>
</g>
<!-- age&#45;&gt;firesev -->
<g id="edge1" class="edge">
<title>age&#45;&gt;firesev</title>
<path fill="none" stroke="black" d="M27,-200.84C27,-186.24 27,-164.98 27,-147.85"/>
<polygon fill="black" stroke="black" points="30.5,-148.3 27,-138.3 23.5,-148.3 30.5,-148.3"/>
<text text-anchor="middle" x="52.5" y="-171.6" font-family="Times,serif" font-size="12.00">0.156</text>
<text text-anchor="middle" x="52.5" y="-157.35" font-family="Times,serif" font-size="12.00">p&#45;val: 0.00</text>
</g>
<!-- firesev&#45;&gt;cover -->
<g id="edge2" class="edge">
<title>firesev&#45;&gt;cover</title>
<path fill="none" stroke="black" d="M27,-100.34C27,-85.74 27,-64.48 27,-47.35"/>
<polygon fill="black" stroke="black" points="30.5,-47.8 27,-37.8 23.5,-47.8 30.5,-47.8"/>
<text text-anchor="middle" x="52.5" y="-71.1" font-family="Times,serif" font-size="12.00">0.124</text>
<text text-anchor="middle" x="52.5" y="-56.85" font-family="Times,serif" font-size="12.00">p&#45;val: 0.00</text>
</g>
</g>
</svg>
