<?xml version="1.0" encoding="UTF-8" standalone="no"?>
<!DOCTYPE svg PUBLIC "-//W3C//DTD SVG 1.1//EN"
 "http://www.w3.org/Graphics/SVG/1.1/DTD/svg11.dtd">
<!-- Generated by graphviz version 12.0.0 (0)
 -->
<!-- Title: G Pages: 1 -->
<svg width="142pt" height="245pt"
 viewBox="0.00 0.00 142.00 245.00" xmlns="http://www.w3.org/2000/svg" xmlns:xlink="http://www.w3.org/1999/xlink">
<g id="graph0" class="graph" transform="scale(1 1) rotate(0) translate(4 241)">
<title>G</title>
<polygon fill="white" stroke="none" points="-4,4 -4,-241 138,-241 138,4 -4,4"/>
<!-- cover -->
<g id="node1" class="node">
<title>cover</title>
<polygon fill="none" stroke="black" points="54,-36 0,-36 0,0 54,0 54,-36"/>
<text text-anchor="middle" x="27" y="-12.95" font-family="Times,serif" font-size="14.00">cover</text>
</g>
<!-- age -->
<g id="node2" class="node">
<title>age</title>
<polygon fill="none" stroke="black" points="54,-237 0,-237 0,-201 54,-201 54,-237"/>
<text text-anchor="middle" x="27" y="-213.95" font-family="Times,serif" font-size="14.00">age</text>
</g>
<!-- age&#45;&gt;cover -->
<g id="edge2" class="edge">
<title>age&#45;&gt;cover</title>
<path fill="none" stroke="black" d="M25.06,-200.54C23.34,-184.06 20.95,-158.63 20,-136.5 18.7,-106.07 21.28,-71.25 23.67,-47.47"/>
<polygon fill="black" stroke="black" points="27.14,-47.93 24.72,-37.62 20.18,-47.19 27.14,-47.93"/>
<text text-anchor="middle" x="45.5" y="-121.35" font-family="Times,serif" font-size="12.00">0.005</text>
<text text-anchor="middle" x="45.5" y="-107.1" font-family="Times,serif" font-size="12.00">p&#45;val: 0.40</text>
</g>
<!-- firesev -->
<g id="node3" class="node">
<title>firesev</title>
<polygon fill="none" stroke="black" points="134,-136.5 80,-136.5 80,-100.5 134,-100.5 134,-136.5"/>
<text text-anchor="middle" x="107" y="-113.45" font-family="Times,serif" font-size="14.00">firesev</text>
</g>
<!-- age&#45;&gt;firesev -->
<g id="edge1" class="edge">
<title>age&#45;&gt;firesev</title>
<path fill="none" stroke="black" d="M40.93,-200.84C53.36,-185.54 71.74,-162.92 85.95,-145.41"/>
<polygon fill="black" stroke="black" points="88.41,-147.94 92,-137.97 82.98,-143.52 88.41,-147.94"/>
<text text-anchor="middle" x="101.5" y="-171.6" font-family="Times,serif" font-size="12.00">0.156</text>
<text text-anchor="middle" x="101.5" y="-157.35" font-family="Times,serif" font-size="12.00">p&#45;val: 0.00</text>
</g>
<!-- firesev&#45;&gt;cover -->
<g id="edge3" class="edge">
<title>firesev&#45;&gt;cover</title>
<path fill="none" stroke="black" d="M93.07,-100.34C80.64,-85.04 62.26,-62.42 48.05,-44.91"/>
<polygon fill="black" stroke="black" points="51.02,-43.02 42,-37.47 45.59,-47.44 51.02,-43.02"/>
<text text-anchor="middle" x="101.5" y="-71.1" font-family="Times,serif" font-size="12.00">0.100</text>
<text text-anchor="middle" x="101.5" y="-56.85" font-family="Times,serif" font-size="12.00">p&#45;val: 0.00</text>
</g>
</g>
</svg>
